<?xml version="1.0" encoding="UTF-8"?>
<svg xmlns="http://www.w3.org/2000/svg" version="1.1" width="1024" height="1024" style="background-color:transparent;">
  <path d="M0 0 C337.92 0 675.84 0 1024 0 C1024 337.92 1024 675.84 1024 1024 C686.08 1024 348.16 1024 0 1024 C0 686.08 0 348.16 0 0 Z " fill="#FEFEFE" transform="translate(0,0)"/>
  <path d="M0 0 C37.351875 -0.061875 74.70375 -0.12375 113.1875 -0.1875 C124.95172607 -0.21481201 136.71595215 -0.24212402 148.83666992 -0.27026367 C163.2779541 -0.28381348 163.2779541 -0.28381348 170.05317688 -0.28633118 C174.75313119 -0.28910953 179.45298232 -0.30028531 184.15290833 -0.31672668 C190.17167822 -0.3374986 196.19030082 -0.34343789 202.20910323 -0.33921683 C204.40316776 -0.34009782 206.59723813 -0.34593037 208.79127157 -0.35764539 C253.11956358 -0.58309616 294.42351622 11.98887212 326.52001953 43.52832031 C343.82483912 60.73608219 355.84604982 81.72994629 363 105 C363.37898438 106.22074219 363.75796875 107.44148438 364.1484375 108.69921875 C375.98069314 149.84522051 370.95210245 194.86746898 350.61328125 232.5234375 C342.77954767 246.47436802 333.01866883 258.45738871 322 270 C320.78183594 271.29744141 320.78183594 271.29744141 319.5390625 272.62109375 C291.33932729 301.87033367 249.43325751 320.22194189 208.87109375 321.30078125 C206.39330266 321.32026152 203.91534219 321.32373447 201.4375 321.3125 C199.46632202 321.30404053 199.46632202 321.30404053 197.45532227 321.29541016 C162.66105664 320.86498321 129.52217824 309.82437454 103 287 C98.21041185 291.0010126 93.67404205 295.17332231 89.2578125 299.58105469 C88.62429871 300.20960358 87.99078491 300.83815247 87.33807373 301.48574829 C85.2642956 303.54504272 83.19432055 305.60810189 81.125 307.671875 C80.41200745 308.38204018 79.69901489 309.09220535 78.9644165 309.82389069 C75.19296736 313.58040513 71.4243619 317.33974436 67.65820312 321.1015625 C63.78842666 324.96585539 59.90945878 328.82078075 56.02822876 332.67356491 C53.02554987 335.65753323 50.02968424 338.64827303 47.0355835 341.64084625 C45.60927303 343.0641499 44.18048568 344.48497626 42.74908447 345.9031601 C27.14679813 360.42787103 27.14679813 360.42787103 20.6875 379.875 C20.82805086 386.54112634 22.77754829 391.77220265 27 397 C27 397.66 27 398.32 27 399 C27.57492187 399.28617188 28.14984375 399.57234375 28.7421875 399.8671875 C30.17256906 400.58485299 31.59561031 401.31750433 33.0078125 402.0703125 C40.4396862 405.77253741 47.00407658 406.23573569 54.9375 403.6875 C66.1803812 398.60893995 73.58893733 386.91433849 80.74609375 377.328125 C83.74480099 373.31322383 86.84851811 369.39551675 90 365.5 C94.75967002 359.59600544 99.39262877 353.60479942 103.98632812 347.57104492 C108.13016746 342.13008463 112.30405351 336.71338228 116.5 331.3125 C117.07540527 330.5702417 117.65081055 329.8279834 118.24365234 329.06323242 C121.42254989 324.97641186 124.66027219 320.95658052 128 317 C130.64920076 317.94976983 133.29411973 318.90927908 135.9375 319.875 C136.69224609 320.14441406 137.44699219 320.41382813 138.22460938 320.69140625 C143.88671875 322.7734375 143.88671875 322.7734375 145 325 C143.65913756 327.43877045 142.26487414 329.73410785 140.75 332.0625 C140.06925415 333.1289978 140.06925415 333.1289978 139.37475586 334.21704102 C137.9248003 336.48348122 136.4632807 338.74214475 135 341 C134.08952672 342.4138584 133.17936355 343.82791654 132.26953125 345.2421875 C129.98508634 348.7865459 127.68968384 352.32367715 125.39111328 355.85888672 C123.08877722 359.40249628 120.79479084 362.95150163 118.5 366.5 C117.58337383 367.91669287 116.66670715 369.33335953 115.75 370.75 C115.29625 371.45125 114.8425 372.1525 114.375 372.875 C113 375 111.625 377.125 110.25 379.25 C109.56901245 380.30247925 109.56901245 380.30247925 108.87426758 381.3762207 C107.96015035 382.78888827 107.04592557 384.20148625 106.1315918 385.61401367 C103.80001926 389.21629532 101.47048966 392.81987164 99.14453125 396.42578125 C83.804919 420.195081 83.804919 420.195081 82 422 C54.94 422 27.88 422 0 422 C0 282.74 0 143.48 0 0 Z " fill="#191919" transform="translate(337,251)"/>
  <path d="M0 0 C0.6909375 0.15065918 1.381875 0.30131836 2.09375 0.45654297 C26.39785488 5.87190538 46.24484871 16.63766179 64 34 C64.75023437 34.69996094 65.50046875 35.39992188 66.2734375 36.12109375 C71.31586335 40.92202411 75.241057 46.15180394 79 52 C79.57621094 52.87011719 80.15242187 53.74023438 80.74609375 54.63671875 C97.2117747 80.93046761 99.38156824 111.88372871 92.58984375 141.58642578 C87.42718755 162.71143375 74.78978681 180.43055989 60 196 C59.5369043 196.49032715 59.07380859 196.9806543 58.59667969 197.48583984 C52.23483631 204.18152252 45.90474993 210.12482383 38 215 C36.98808594 215.64453125 35.97617187 216.2890625 34.93359375 216.953125 C7.9751796 233.32184923 -26.25618848 239.13896474 -57.12109375 232.0234375 C-58.41616282 231.69035378 -59.70912614 231.34898905 -61 231 C-61.69496582 230.81727539 -62.38993164 230.63455078 -63.10595703 230.44628906 C-81.21310472 225.50465655 -99.03095968 216.61678618 -113 204 C-113.60537598 203.45359863 -114.21075195 202.90719727 -114.83447266 202.34423828 C-134.45085435 184.32171853 -149.85936585 159.33888368 -151.13867188 132.04101562 C-152.22173398 95.06824846 -142.7757765 64.95836306 -117.37890625 37.44140625 C-87.48483454 6.76194021 -42.61711313 -9.59890166 0 0 Z " fill="#FCFDFC" transform="translate(565,296)"/>
  <path d="M0 0 C5.94 0 11.88 0 18 0 C18 46.2 18 92.4 18 140 C12.06 140 6.12 140 0 140 C0 93.8 0 47.6 0 0 Z " fill="#2D9E47" transform="translate(460,342)"/>
  <path d="M0 0 C5.28 0 10.56 0 16 0 C16 45.87 16 91.74 16 139 C10.72 139 5.44 139 0 139 C0 93.13 0 47.26 0 0 Z " fill="#2B9D44" transform="translate(523,343)"/>
  <path d="M0 0 C5.28 0 10.56 0 16 0 C16 45.87 16 91.74 16 139 C10.72 139 5.44 139 0 139 C0 93.13 0 47.26 0 0 Z " fill="#2D9E46" transform="translate(493,343)"/>
  <path d="M0 0 C4.95 0 9.9 0 15 0 C15 45.87 15 91.74 15 139 C10.05 139 5.1 139 0 139 C0 93.13 0 47.26 0 0 Z " fill="#2C9C43" transform="translate(583,343)"/>
  <path d="M0 0 C4.95 0 9.9 0 15 0 C15 45.87 15 91.74 15 139 C10.05 139 5.1 139 0 139 C0 93.13 0 47.26 0 0 Z " fill="#2C9C43" transform="translate(553,343)"/>
  <path d="M0 0 C2.64 0 5.28 0 8 0 C8.16360801 16.19423234 8.28700243 32.38819614 8.3626852 48.5830555 C8.39876211 56.10285208 8.44793616 63.62213482 8.52807617 71.14160156 C8.59790298 77.69652111 8.64302055 84.2510685 8.65861946 90.80634964 C8.66773659 94.27674491 8.68912064 97.74607567 8.7401104 101.2161293 C8.79660536 105.09236672 8.79792564 108.96756803 8.79467773 112.84423828 C8.81984467 113.99150894 8.8450116 115.1387796 8.87094116 116.32081604 C8.80154999 123.96484771 8.80154999 123.96484771 6.38820076 127.08153915 C4.65878695 128.57921345 2.96889064 129.84071872 1 131 C0 130 0 130 -0.12304783 127.84669399 C-0.12212604 126.88895108 -0.12120424 125.93120817 -0.12025452 124.94444275 C-0.12162918 123.84922806 -0.12300385 122.75401337 -0.12442017 121.62561035 C-0.12082489 120.41360962 -0.11722961 119.20160889 -0.11352539 117.95288086 C-0.11367142 116.68477066 -0.11381744 115.41666046 -0.1139679 114.11012268 C-0.11425585 110.62267578 -0.10835945 107.13526299 -0.10139394 103.64782405 C-0.09516007 100.00696277 -0.09455658 96.36610078 -0.09336853 92.72523499 C-0.09025531 85.82623028 -0.08204205 78.92724135 -0.07201904 72.0282436 C-0.06085761 64.17589315 -0.05534738 56.32354197 -0.05032361 48.47118556 C-0.03985943 32.31411447 -0.02226017 16.15705924 0 0 Z " fill="#27993E" transform="translate(613,343)"/>
  <path d="M0 0 C0.99 0 1.98 0 3 0 C3.07409401 3.95092059 3.12857406 7.90157294 3.16479492 11.85302734 C3.18732251 13.85919374 3.2254357 15.86516526 3.26367188 17.87109375 C3.27333984 19.12792969 3.28300781 20.38476562 3.29296875 21.6796875 C3.3086792 22.84226074 3.32438965 24.00483398 3.34057617 25.20263672 C3.22818604 26.1257666 3.1157959 27.04889648 3 28 C2.01 28.66 1.02 29.32 0 30 C0 20.1 0 10.2 0 0 Z " fill="#232324" transform="translate(704,391)"/>
  <path d="M0 0 C0.33 0 0.66 0 1 0 C1 4.95 1 9.9 1 15 C0.34 15 -0.32 15 -1 15 C-0.67 17.31 -0.34 19.62 0 22 C-0.99 22 -1.98 22 -3 22 C-2.67 18.37 -2.34 14.74 -2 11 C-1.67 11 -1.34 11 -1 11 C-0.67 7.37 -0.34 3.74 0 0 Z " fill="#212222" transform="translate(662,407)"/>
  <path d="M0 0 C1 2 1 2 0.375 4 C-1.39265071 6.57112831 -3.07589059 7.07659703 -6 8 C-4.02 5.36 -2.04 2.72 0 0 Z " fill="#0C0C0C" transform="translate(458,577)"/>
</svg>
